<svg xmlns="http://www.w3.org/2000/svg" viewBox="0 0 543.46 61.5"><defs><style>.cls-1{fill:#4a4b4c;}</style></defs><title>separador</title><g id="Layer_2" data-name="Layer 2"><g id="Layer_1-2" data-name="Layer 1"><path class="cls-1" d="M409.3,10.62c-7.4,0-13,4.3-17.4,9.88-.2-5.07-2.79-9.53-8-10.59-4.52-.91-9.08,1.13-10.42,5.78a6.11,6.11,0,0,0,.36,4.64c.51,1.14.43,1.24-.22,2.23-.29.44-.91.48.42.44a4.76,4.76,0,0,0,4-3.33c.6-1.89-.55-4.28-2.85-3.73a7.39,7.39,0,0,1,9.34-3.3c3.8,1.38,5.12,5.45,4.79,9.2-.79,9-11.72,12.16-19.18,11.75a37.43,37.43,0,0,1-13.05-3.14c-4.16-1.84-8-4.35-11.93-6.58a56.77,56.77,0,0,0-24.26-7.53c-8.93-.64-17.62.11-25.63,4.46,2.17-4.79,2.46-10.69-.36-15.29a11.57,11.57,0,0,0-13.3-5c-4.48,1.45-8,6.55-5.84,11.19a5.49,5.49,0,0,0,5.43,3.4c2.38-.22,3.16-1.51,4-3.46.25-.56.45-.94,1.07-1.1a4.63,4.63,0,0,1,1.27.2c.41-.51-1.46-1.55-1.85-1.71-2.24-.92-6.49,0-6.23,3.13-2-1.19-2-4.07-1-5.92a7,7,0,0,1,5.41-3.55c5.43-.72,9.55,3.36,10.31,8.49A15.44,15.44,0,0,1,289,24.89a55.51,55.51,0,0,0-11,11.9,46.5,46.5,0,0,0-6.36,13.52,33.1,33.1,0,0,0-1.16,6.76c0,.84-.27,2.06.56,2.6a1.36,1.36,0,0,0,1.89-.53c.77-1,1.32-2.28,2-3.36A67.42,67.42,0,0,1,280,48.9c5.57-6.55,12.8-12.46,21.45-14.09-.17,2.94,2.84,4.13,5.17,3,.63-.3,1.3-.9,2-.89a4.07,4.07,0,0,1,1.91,1.49c1.19-.62-1.45-4.41-1.87-4.86-1.83-1.93-4-2-6.49-1.68-12.15,1.34-22,11.34-28.54,20.92,4.6-20.71,26.74-39.16,48.44-32.79,8.19,2.4,14.23,8.8,15.28,17.39,1.07,8.76-3,19.45-12.59,21.2-4.72.87-10.47-.69-12.56-5.39a7.71,7.71,0,0,1,.19-7c1.44-2.36,4.89-3.55,6.66-.82-3,1-1.41,5,.5,6.29.36.23,2.63,1.27,2.94.59.08-.17-.68-.45-.82-.62-.53-.66-.25-1.19.05-1.86a6.14,6.14,0,0,0-8.25-8c-5.19,2.44-5.73,9.35-3,13.8,2.95,4.77,9,6.51,14.34,5.69,6.58-1,11.6-6,13.84-12.14,1.4,4.86,4.49,9.17,9.28,11.11a15,15,0,0,0,14.62-1.55c4.05-3,6.51-9.07,2.89-13.43a7.53,7.53,0,0,0-6.91-2.67,5.43,5.43,0,0,0-4.34,5.25c.08,1.11,1.36,2.2,1,3.3-.27.84-2.06,1.5.25,1.11,2.6-.43,5.62-4.8,2.63-6.69,2.3-1.47,5.37.68,6.18,2.87s-.14,4.93-1.71,6.7c-3.24,3.68-8.41,4.46-12.91,2.93a13.4,13.4,0,0,1-8.15-8.62c-1.71-4.91-.85-10.06-2-15a22.59,22.59,0,0,0-10.28-14c8.76,2.15,15.86,7.22,23.74,11.3,7.41,3.84,16.52,6.15,24.82,4.13A21.08,21.08,0,0,0,388,30.23c2.59-2.67,4.33-6.15,6.72-9,3.82-4.6,8.85-8.31,15.12-7.94a8.31,8.31,0,0,1,7.59,6c.85,3-.61,8.44-4.86,7.35,2.23-1.88.28-5.31-1.75-6.42-.4-.22-2.49-1-2.84-.49-.14.23,1.08.86,1.16,1.54.12,1-.93,2-1,3a4.67,4.67,0,0,0,1,3,5.35,5.35,0,0,0,5.82,1.89c5-1.27,6.39-6.84,4.86-11.24A10.94,10.94,0,0,0,409.3,10.62Z"/><path class="cls-1" d="M134.15,10.62c7.41,0,13,4.3,17.41,9.88.2-5.07,2.78-9.53,8-10.59C164.12,9,168.68,11,170,15.69a6.16,6.16,0,0,1-.37,4.64c-.5,1.14-.42,1.24.23,2.23.28.44.91.48-.42.44a4.79,4.79,0,0,1-4-3.33c-.59-1.89.56-4.28,2.86-3.73a7.39,7.39,0,0,0-9.34-3.3c-3.81,1.38-5.13,5.45-4.79,9.2.79,9,11.71,12.16,19.18,11.75a37.48,37.48,0,0,0,13.05-3.14c4.16-1.84,8-4.35,11.93-6.58a56.73,56.73,0,0,1,24.26-7.53c8.93-.64,17.62.11,25.63,4.46-2.18-4.79-2.46-10.69.36-15.29a11.57,11.57,0,0,1,13.3-5c4.47,1.45,8,6.55,5.83,11.19a5.48,5.48,0,0,1-5.42,3.4c-2.38-.22-3.16-1.51-4-3.46-.25-.56-.44-.94-1.06-1.1a4.63,4.63,0,0,0-1.27.2c-.41-.51,1.46-1.55,1.85-1.71,2.24-.92,6.48,0,6.22,3.13,2.05-1.19,2-4.07,1-5.92a7,7,0,0,0-5.42-3.55c-5.43-.72-9.54,3.36-10.3,8.49a15.44,15.44,0,0,0,5.14,13.68,55.76,55.76,0,0,1,11.05,11.9,46.76,46.76,0,0,1,6.36,13.52A32.41,32.41,0,0,1,273,57.07c.05.84.28,2.06-.55,2.6a1.36,1.36,0,0,1-1.89-.53c-.78-1-1.33-2.28-2-3.36a67.42,67.42,0,0,0-5.12-6.88c-5.57-6.55-12.8-12.46-21.45-14.09.16,2.94-2.84,4.13-5.18,3-.62-.3-1.29-.9-2-.89a4.06,4.06,0,0,0-1.92,1.49c-1.18-.62,1.45-4.41,1.88-4.86,1.83-1.93,4-2,6.49-1.68,12.14,1.34,22,11.34,28.54,20.92-4.6-20.71-26.74-39.16-48.44-32.79-8.2,2.4-14.24,8.8-15.29,17.39-1.07,8.76,3,19.45,12.59,21.2,4.72.87,10.48-.69,12.57-5.39a7.74,7.74,0,0,0-.19-7c-1.44-2.36-4.89-3.55-6.67-.82,3,1,1.42,5-.49,6.29-.36.23-2.63,1.27-3,.59-.08-.17.69-.45.83-.62.53-.66.24-1.19-.05-1.86a6.14,6.14,0,0,1,8.25-8c5.19,2.44,5.73,9.35,3,13.8-2.95,4.77-9,6.51-14.34,5.69-6.57-1-11.59-6-13.83-12.14-1.4,4.86-4.49,9.17-9.28,11.11a15,15,0,0,1-14.62-1.55c-4.06-3-6.51-9.07-2.89-13.43a7.53,7.53,0,0,1,6.91-2.67,5.41,5.41,0,0,1,4.33,5.25c-.07,1.11-1.36,2.2-1,3.3.27.84,2.06,1.5-.26,1.11-2.59-.43-5.61-4.8-2.63-6.69-2.29-1.47-5.36.68-6.18,2.87s.15,4.93,1.72,6.7c3.24,3.68,8.41,4.46,12.91,2.93a13.4,13.4,0,0,0,8.15-8.62c1.71-4.91.84-10.06,2-15a22.57,22.57,0,0,1,10.27-14c-8.75,2.15-15.85,7.22-23.74,11.3-7.4,3.84-16.51,6.15-24.81,4.13a21,21,0,0,1-10.14-5.59c-2.6-2.67-4.33-6.15-6.72-9-3.82-4.6-8.86-8.31-15.13-7.94a8.3,8.3,0,0,0-7.58,6c-.86,3,.61,8.44,4.85,7.35-2.22-1.88-.28-5.31,1.75-6.42.41-.22,2.5-1,2.84-.49.15.23-1.08.86-1.15,1.54-.12,1,.93,2,1,3a4.72,4.72,0,0,1-1,3,5.35,5.35,0,0,1-5.82,1.89c-5-1.27-6.39-6.84-4.86-11.24A10.94,10.94,0,0,1,134.15,10.62Z"/><path class="cls-1" d="M165.13,47.45,0,45.85l165.13-1.6a1.6,1.6,0,0,1,0,3.2Z"/><path class="cls-1" d="M543.46,45.85l-165.14,1.6a1.6,1.6,0,0,1,0-3.2h0Z"/></g></g></svg>